<svg width="60" height="102" viewBox="0 0 120 204" fill="none" xmlns="http://www.w3.org/2000/svg">
<g id="Group 2">
<path id="Fill 14 Copy" fill-rule="evenodd" clip-rule="evenodd" d="M30 60V30H60V0H0V60H30Z" fill="#FFBD00"/>
<path id="Fill 24" fill-rule="evenodd" clip-rule="evenodd" d="M119.903 60V63.75C119.903 86.25 109.058 100.65 89.9033 112.5C81.4583 117.735 59.9033 127.5 59.9033 127.5V93.75L74.9033 86.25C89.9033 78.75 89.9033 71.25 89.9033 63.75V60H119.903Z" fill="#4D00A5"/>
<path id="Fill 30" fill-rule="evenodd" clip-rule="evenodd" d="M60 93.75H30V115.225C30 135.183 36.585 157.173 48.3 176.25L71.67 158.801C63.915 145.566 60 130.417 60 115.225V93.75Z" fill="#FF00F6"/>
<path id="Fill 14 Copy 2" fill-rule="evenodd" clip-rule="evenodd" d="M90 60C90 60 90 45 82.5 37.5C75 30 60 30 60 30V0C60 0 90 0 105 15C120 30 120 60 120 60H90Z" fill="#00E47B"/>
<path id="Fill 20 Copy" fill-rule="evenodd" clip-rule="evenodd" d="M90 187.5C90 179.22 83.28 172.5 75 172.5C66.72 172.5 60 179.22 60 187.5C60 195.78 66.72 202.5 75 202.5C83.28 202.5 90 195.78 90 187.5" fill="#00E47B"/>
</g>
</svg>
